<?xml version="1.0" encoding="UTF-8"?>
    <svg xmlns="http://www.w3.org/2000/svg" version="1.1" width="200" height="200" viewBox="0 0 200 200"><rect x="0" y="0" width="200" height="200" fill="#ffffff"/><g transform="scale(5.405)"><g transform="translate(0,0)"><path fill-rule="evenodd" d="M8 0L8 3L9 3L9 5L8 5L8 9L7 9L7 8L6 8L6 9L7 9L7 10L5 10L5 11L7 11L7 10L8 10L8 12L5 12L5 13L4 13L4 14L2 14L2 13L3 13L3 12L2 12L2 11L3 11L3 10L2 10L2 11L0 11L0 12L1 12L1 13L0 13L0 16L3 16L3 15L4 15L4 16L5 16L5 17L4 17L4 18L5 18L5 22L4 22L4 21L3 21L3 20L4 20L4 19L0 19L0 20L1 20L1 21L0 21L0 22L1 22L1 23L0 23L0 29L1 29L1 24L4 24L4 23L5 23L5 22L6 22L6 23L8 23L8 25L9 25L9 27L11 27L11 26L10 26L10 25L11 25L11 24L12 24L12 22L13 22L13 23L14 23L14 24L13 24L13 26L12 26L12 27L13 27L13 26L14 26L14 24L15 24L15 25L16 25L16 27L17 27L17 29L16 29L16 28L15 28L15 27L14 27L14 28L13 28L13 29L12 29L12 28L10 28L10 29L12 29L12 30L13 30L13 29L14 29L14 33L13 33L13 37L17 37L17 36L18 36L18 37L21 37L21 36L22 36L22 37L23 37L23 35L20 35L20 34L19 34L19 33L20 33L20 31L19 31L19 33L16 33L16 32L17 32L17 31L18 31L18 29L20 29L20 30L21 30L21 28L22 28L22 29L23 29L23 30L22 30L22 32L23 32L23 30L25 30L25 31L26 31L26 30L28 30L28 32L27 32L27 33L28 33L28 34L29 34L29 35L28 35L28 36L30 36L30 37L32 37L32 36L33 36L33 35L32 35L32 34L34 34L34 35L35 35L35 34L34 34L34 33L35 33L35 32L36 32L36 33L37 33L37 30L36 30L36 27L37 27L37 26L36 26L36 27L35 27L35 25L36 25L36 24L34 24L34 27L35 27L35 28L33 28L33 27L32 27L32 26L30 26L30 25L31 25L31 24L30 24L30 23L31 23L31 22L30 22L30 23L28 23L28 22L29 22L29 21L37 21L37 20L36 20L36 19L37 19L37 18L36 18L36 17L35 17L35 16L34 16L34 15L36 15L36 16L37 16L37 14L31 14L31 15L30 15L30 16L29 16L29 14L30 14L30 13L31 13L31 12L32 12L32 13L36 13L36 11L37 11L37 10L36 10L36 9L37 9L37 8L34 8L34 9L33 9L33 10L32 10L32 8L29 8L29 6L28 6L28 5L27 5L27 6L26 6L26 8L27 8L27 9L26 9L26 10L25 10L25 9L24 9L24 10L23 10L23 11L22 11L22 13L23 13L23 14L24 14L24 13L23 13L23 11L24 11L24 12L25 12L25 13L27 13L27 11L26 11L26 10L30 10L30 13L28 13L28 14L27 14L27 15L26 15L26 14L25 14L25 15L22 15L22 14L20 14L20 13L18 13L18 12L17 12L17 11L19 11L19 12L20 12L20 8L21 8L21 6L22 6L22 7L23 7L23 6L22 6L22 5L23 5L23 4L22 4L22 3L23 3L23 2L26 2L26 3L25 3L25 4L24 4L24 5L25 5L25 4L29 4L29 3L28 3L28 1L29 1L29 0L28 0L28 1L27 1L27 0L24 0L24 1L22 1L22 0L21 0L21 2L20 2L20 3L19 3L19 4L14 4L14 3L13 3L13 2L14 2L14 0L12 0L12 1L11 1L11 0L10 0L10 1L9 1L9 0ZM17 0L17 1L18 1L18 2L17 2L17 3L18 3L18 2L19 2L19 1L18 1L18 0ZM10 1L10 2L9 2L9 3L10 3L10 2L11 2L11 8L10 8L10 5L9 5L9 8L10 8L10 9L11 9L11 10L9 10L9 11L10 11L10 12L8 12L8 13L11 13L11 12L12 12L12 11L13 11L13 8L12 8L12 4L13 4L13 3L12 3L12 2L11 2L11 1ZM15 1L15 3L16 3L16 1ZM19 4L19 5L15 5L15 7L16 7L16 6L17 6L17 10L19 10L19 9L18 9L18 8L19 8L19 7L20 7L20 6L21 6L21 5L20 5L20 4ZM13 5L13 7L14 7L14 5ZM18 6L18 7L19 7L19 6ZM24 6L24 8L25 8L25 6ZM27 6L27 7L28 7L28 6ZM2 8L2 9L5 9L5 8ZM22 8L22 9L23 9L23 8ZM28 8L28 9L29 9L29 8ZM30 9L30 10L31 10L31 11L32 11L32 10L31 10L31 9ZM34 9L34 10L33 10L33 12L35 12L35 11L34 11L34 10L35 10L35 9ZM11 10L11 11L12 11L12 10ZM15 10L15 11L14 11L14 12L13 12L13 13L12 13L12 14L13 14L13 16L14 16L14 15L16 15L16 16L17 16L17 18L16 18L16 17L14 17L14 18L13 18L13 17L12 17L12 18L13 18L13 19L12 19L12 20L11 20L11 19L10 19L10 17L11 17L11 14L9 14L9 15L5 15L5 14L7 14L7 13L5 13L5 14L4 14L4 15L5 15L5 16L8 16L8 17L9 17L9 18L7 18L7 17L6 17L6 18L7 18L7 19L6 19L6 20L7 20L7 21L6 21L6 22L10 22L10 23L11 23L11 22L12 22L12 20L13 20L13 21L14 21L14 23L16 23L16 24L17 24L17 23L18 23L18 21L19 21L19 23L20 23L20 24L18 24L18 25L19 25L19 26L21 26L21 23L22 23L22 25L23 25L23 26L26 26L26 27L24 27L24 28L26 28L26 29L27 29L27 28L28 28L28 27L30 27L30 28L31 28L31 27L30 27L30 26L29 26L29 24L28 24L28 27L27 27L27 25L26 25L26 24L27 24L27 23L26 23L26 24L25 24L25 25L23 25L23 22L21 22L21 21L20 21L20 20L22 20L22 21L25 21L25 20L26 20L26 19L25 19L25 20L23 20L23 19L24 19L24 18L26 18L26 17L27 17L27 18L28 18L28 19L29 19L29 20L28 20L28 21L26 21L26 22L28 22L28 21L29 21L29 20L31 20L31 19L33 19L33 20L35 20L35 19L36 19L36 18L35 18L35 17L34 17L34 16L33 16L33 15L32 15L32 16L31 16L31 17L30 17L30 19L29 19L29 18L28 18L28 15L27 15L27 16L26 16L26 15L25 15L25 16L26 16L26 17L24 17L24 16L23 16L23 17L22 17L22 15L21 15L21 16L17 16L17 15L19 15L19 14L17 14L17 15L16 15L16 13L17 13L17 12L15 12L15 11L16 11L16 10ZM25 11L25 12L26 12L26 11ZM28 11L28 12L29 12L29 11ZM14 12L14 13L15 13L15 12ZM1 14L1 15L2 15L2 14ZM9 15L9 16L10 16L10 15ZM32 16L32 17L31 17L31 18L32 18L32 17L33 17L33 19L35 19L35 18L34 18L34 17L33 17L33 16ZM1 17L1 18L2 18L2 17ZM20 17L20 18L17 18L17 19L16 19L16 20L15 20L15 18L14 18L14 19L13 19L13 20L15 20L15 21L16 21L16 22L17 22L17 21L18 21L18 20L20 20L20 18L22 18L22 19L23 19L23 18L24 18L24 17L23 17L23 18L22 18L22 17ZM7 19L7 20L8 20L8 21L9 21L9 20L10 20L10 21L11 21L11 20L10 20L10 19L9 19L9 20L8 20L8 19ZM17 19L17 20L16 20L16 21L17 21L17 20L18 20L18 19ZM1 21L1 22L2 22L2 23L3 23L3 22L2 22L2 21ZM24 22L24 23L25 23L25 22ZM32 22L32 23L33 23L33 22ZM34 22L34 23L37 23L37 22ZM6 24L6 25L5 25L5 26L4 26L4 25L2 25L2 26L3 26L3 27L2 27L2 28L3 28L3 29L5 29L5 27L7 27L7 28L6 28L6 29L7 29L7 28L8 28L8 27L7 27L7 26L6 26L6 25L7 25L7 24ZM9 24L9 25L10 25L10 24ZM32 24L32 25L33 25L33 24ZM17 26L17 27L18 27L18 28L19 28L19 27L18 27L18 26ZM20 27L20 28L21 28L21 27ZM22 27L22 28L23 28L23 27ZM26 27L26 28L27 28L27 27ZM14 28L14 29L15 29L15 30L16 30L16 29L15 29L15 28ZM8 29L8 30L9 30L9 29ZM29 29L29 32L32 32L32 29ZM33 29L33 31L34 31L34 32L33 32L33 33L34 33L34 32L35 32L35 31L36 31L36 30L35 30L35 29ZM10 30L10 31L9 31L9 32L8 32L8 35L10 35L10 31L11 31L11 33L12 33L12 32L13 32L13 31L11 31L11 30ZM30 30L30 31L31 31L31 30ZM15 31L15 32L16 32L16 31ZM25 32L25 33L24 33L24 34L26 34L26 35L27 35L27 34L26 34L26 32ZM21 33L21 34L23 34L23 33ZM29 33L29 34L30 34L30 35L31 35L31 34L30 34L30 33ZM11 34L11 35L12 35L12 34ZM15 34L15 36L16 36L16 34ZM36 34L36 36L34 36L34 37L37 37L37 34ZM19 35L19 36L20 36L20 35ZM24 35L24 37L27 37L27 36L25 36L25 35ZM11 36L11 37L12 37L12 36ZM0 0L0 7L7 7L7 0ZM1 1L1 6L6 6L6 1ZM2 2L2 5L5 5L5 2ZM30 0L30 7L37 7L37 0ZM31 1L31 6L36 6L36 1ZM32 2L32 5L35 5L35 2ZM0 30L0 37L7 37L7 30ZM1 31L1 36L6 36L6 31ZM2 32L2 35L5 35L5 32Z" fill="#000000"/></g></g></svg>